<svg width="300" height="300" xmlns="http://www.w3.org/2000/svg" class="iconAboveSlogan">
 <!---->
 <defs>
  <!---->
  <linearGradient gradientTransform="rotate(25)" id="6b65eb74-70d5-47eb-b38a-6d809e1e6713" x1="0%" y1="0%" x2="100%" y2="0%">
   <stop offset="0%" stop-color="#EA1F59"/>
   <stop offset="100%" stop-color="#FA9169"/>
  </linearGradient>
 </defs>
 <defs>
  <!---->
 </defs>
 <defs>
  <!---->
 </defs>
 <g>
  <title>Layer 1</title>
  <g id="dc88f18b-0b50-47e8-89a6-9fb249d8c25a" fill="url(#6b65eb74-70d5-47eb-b38a-6d809e1e6713)" transform="matrix(3.579295184259752,0,0,3.579295184259752,17.458700495978917,148.84753227384982)">
   <path d="m5.2,12.74l0,0q-1.47,0 -2.48,-0.67l0,0l0,0q-1.01,-0.67 -1.51,-1.8l0,0l0,0q-0.5,-1.12 -0.5,-2.5l0,0l0,0q0,-1.37 0.5,-2.5l0,0l0,0q0.5,-1.13 1.51,-1.8l0,0l0,0q1.01,-0.67 2.48,-0.67l0,0l0,0q1.47,0 2.48,0.67l0,0l0,0q1.01,0.67 1.51,1.8l0,0l0,0q0.5,1.13 0.5,2.5l0,0l0,0q0,1.38 -0.5,2.5l0,0l0,0q-0.5,1.13 -1.51,1.8l0,0l0,0q-1.01,0.67 -2.48,0.67l0,0zm0,-1.25l0,0q1.05,0 1.75,-0.5l0,0l0,0q0.69,-0.51 1,-1.35l0,0l0,0q0.32,-0.84 0.32,-1.87l0,0l0,0q0,-1.02 -0.32,-1.86l0,0l0,0q-0.31,-0.84 -1,-1.34l0,0l0,0q-0.7,-0.51 -1.75,-0.51l0,0l0,0q-1.06,0 -1.74,0.51l0,0l0,0q-0.69,0.5 -1.01,1.34l0,0l0,0q-0.32,0.84 -0.32,1.86l0,0l0,0q0,1.03 0.32,1.87l0,0l0,0q0.32,0.84 1.01,1.35l0,0l0,0q0.68,0.5 1.74,0.5l0,0zm6.29,4.11l0,-9.82l1.33,0l0,0.81l0,0q0.35,-0.46 0.87,-0.71l0,0l0,0q0.52,-0.25 1.14,-0.25l0,0l0,0q0.91,0 1.55,0.48l0,0l0,0q0.65,0.47 0.98,1.28l0,0l0,0q0.34,0.81 0.34,1.8l0,0l0,0q0,0.98 -0.33,1.79l0,0l0,0q-0.33,0.81 -0.98,1.28l0,0l0,0q-0.65,0.48 -1.54,0.48l0,0l0,0q-0.62,0 -1.15,-0.24l0,0l0,0q-0.53,-0.24 -0.88,-0.71l0,0l0,3.81l-1.33,0zm3.04,-4.04l0,0q0.6,0 1.02,-0.32l0,0l0,0q0.41,-0.32 0.61,-0.85l0,0l0,0q0.2,-0.54 0.2,-1.2l0,0l0,0q0,-0.67 -0.2,-1.21l0,0l0,0q-0.2,-0.54 -0.61,-0.86l0,0l0,0q-0.42,-0.33 -1.02,-0.33l0,0l0,0q-0.61,0 -1.02,0.33l0,0l0,0q-0.41,0.32 -0.61,0.86l0,0l0,0q-0.2,0.54 -0.2,1.21l0,0l0,0q0,0.66 0.2,1.2l0,0l0,0q0.2,0.53 0.61,0.85l0,0l0,0q0.41,0.32 1.02,0.32l0,0zm7.49,1.16l0,0q-1.06,0 -1.8,-0.48l0,0l0,0q-0.73,-0.48 -1.1,-1.27l0,0l0,0q-0.36,-0.79 -0.36,-1.75l0,0l0,0q0,-0.93 0.35,-1.75l0,0l0,0q0.35,-0.81 1.06,-1.31l0,0l0,0q0.71,-0.5 1.73,-0.5l0,0l0,0q1.08,0 1.76,0.5l0,0l0,0q0.68,0.49 0.97,1.26l0,0l0,0q0.29,0.77 0.29,1.62l0,0l0,0q0,0.37 -0.04,0.59l0,0l-4.72,0l0,0q0.05,0.85 0.52,1.38l0,0l0,0q0.46,0.53 1.34,0.53l0,0l0,0q0.55,0 0.99,-0.17l0,0l0,0q0.43,-0.17 0.79,-0.56l0,0l0.92,0.77l0,0q-0.56,0.59 -1.21,0.86l0,0l0,0q-0.66,0.28 -1.49,0.28l0,0zm-1.86,-4.1l3.48,0l0,0q-0.05,-0.83 -0.48,-1.35l0,0l0,0q-0.44,-0.51 -1.26,-0.51l0,0l0,0q-0.8,0 -1.23,0.52l0,0l0,0q-0.44,0.52 -0.51,1.34l0,0zm6.36,3.99l0,-6.83l1.31,0l0,1l0,0q0.37,-0.55 0.92,-0.84l0,0l0,0q0.56,-0.29 1.19,-0.29l0,0l0,0q0.81,0 1.35,0.38l0,0l0,0q0.53,0.39 0.78,1.03l0,0l0,0q0.25,0.64 0.25,1.42l0,0l0,4.13l-1.31,0l0,-3.98l0,0q0,-0.77 -0.36,-1.28l0,0l0,0q-0.35,-0.52 -1.08,-0.52l0,0l0,0q-0.78,0 -1.26,0.54l0,0l0,0q-0.48,0.55 -0.48,1.6l0,0l0,3.64l-1.31,0zm8.06,0l0,-9.66l6.5,0l0,1.24l-5.12,0l0,2.97l4.52,0l0,1.23l-4.52,0l0,4.22l-1.38,0zm10.77,0.13l0,0q-0.98,0 -1.75,-0.48l0,0l0,0q-0.76,-0.48 -1.18,-1.3l0,0l0,0q-0.43,-0.82 -0.43,-1.79l0,0l0,0q0,-0.97 0.42,-1.78l0,0l0,0q0.42,-0.81 1.19,-1.28l0,0l0,0q0.77,-0.48 1.75,-0.48l0,0l0,0q0.98,0 1.75,0.48l0,0l0,0q0.77,0.47 1.19,1.29l0,0l0,0q0.43,0.81 0.43,1.77l0,0l0,0q0,0.97 -0.43,1.79l0,0l0,0q-0.42,0.82 -1.19,1.3l0,0l0,0q-0.77,0.48 -1.75,0.48l0,0zm0.01,-1.12l0,0q0.67,0 1.11,-0.34l0,0l0,0q0.45,-0.34 0.67,-0.9l0,0l0,0q0.21,-0.55 0.21,-1.21l0,0l0,0q0,-0.65 -0.21,-1.2l0,0l0,0q-0.22,-0.55 -0.67,-0.88l0,0l0,0q-0.44,-0.33 -1.11,-0.33l0,0l0,0q-0.67,0 -1.12,0.33l0,0l0,0q-0.45,0.33 -0.66,0.88l0,0l0,0q-0.22,0.55 -0.22,1.2l0,0l0,0q0,0.66 0.22,1.22l0,0l0,0q0.21,0.55 0.66,0.89l0,0l0,0q0.45,0.34 1.12,0.34l0,0zm4.92,0.99l0,-6.83l1.3,0l0,1.18l0,0q0.24,-0.62 0.77,-0.97l0,0l0,0q0.53,-0.36 1.15,-0.36l0,0l0,0q0.35,0 0.65,0.11l0,0l0,0q0.31,0.11 0.52,0.31l0,0l-0.58,1.11l0,0q-0.33,-0.25 -0.79,-0.25l0,0l0,0q-0.5,0 -0.89,0.29l0,0l0,0q-0.4,0.29 -0.62,0.85l0,0l0,0q-0.23,0.57 -0.23,1.39l0,0l0,3.17l-1.28,0zm7.72,0.14l0,0q-1.22,0 -1.82,-0.86l0,0l0,0q-0.6,-0.85 -0.6,-2.32l0,0l0,-3.79l1.34,0l0,3.85l0,0q0,0.9 0.29,1.43l0,0l0,0q0.29,0.53 1.05,0.53l0,0l0,0q0.49,0 0.91,-0.26l0,0l0,0q0.42,-0.26 0.67,-0.79l0,0l0,0q0.25,-0.53 0.25,-1.31l0,0l0,-3.45l1.33,0l0,6.83l-1.33,0l0,-1l0,0q-0.3,0.5 -0.86,0.82l0,0l0,0q-0.55,0.32 -1.23,0.32l0,0zm5.57,-0.14l0,-6.83l1.34,0l0,0.89l0,0q0.26,-0.48 0.75,-0.76l0,0l0,0q0.48,-0.28 1.05,-0.28l0,0l0,0q0.69,0 1.2,0.33l0,0l0,0q0.52,0.34 0.8,1l0,0l0,0q0.36,-0.65 0.92,-0.99l0,0l0,0q0.57,-0.34 1.27,-0.34l0,0l0,0q0.83,0 1.38,0.39l0,0l0,0q0.54,0.39 0.81,1.03l0,0l0,0q0.26,0.65 0.26,1.43l0,0l0,4.13l-1.35,0l0,-3.98l0,0q0,-0.78 -0.29,-1.3l0,0l0,0q-0.29,-0.51 -1,-0.51l0,0l0,0q-0.49,0 -0.85,0.29l0,0l0,0q-0.36,0.28 -0.55,0.74l0,0l0,0q-0.19,0.46 -0.19,0.99l0,0l0,3.77l-1.34,0l0,-4.01l0,0q0,-0.78 -0.29,-1.28l0,0l0,0q-0.28,-0.5 -0.98,-0.5l0,0l0,0q-0.5,0 -0.86,0.3l0,0l0,0q-0.36,0.3 -0.55,0.79l0,0l0,0q-0.19,0.49 -0.19,1.05l0,0l0,3.65l-1.34,0z" id="svg_2"/>
  </g>
  <g id="2fbc3a6d-b874-4f69-b9c3-bb4ce829f82a" fill="url(#6b65eb74-70d5-47eb-b38a-6d809e1e6713)" transform="matrix(0.705024 0 0 0.705024 501.807 -313.246)">
   <path d="m-463.057,600.751l-0.186,-1.845a2.412,2.412 0 0 1 1.467,-2.46a74.861,74.861 0 0 0 4.323,-2.023c0.994,-0.504 1.506,-1.643 1.253,-2.728c-0.45,-1.936 -1.116,-3.834 -1.741,-5.734c-0.354,-1.076 -1.412,-1.781 -2.539,-1.662a75.483,75.483 0 0 0 -4.68,0.644a2.412,2.412 0 0 1 -2.538,-1.218l-1.025,-1.888c-0.304,-0.614 -0.726,-1.148 -1.169,-1.667c-0.704,-0.826 -0.749,-2.009 -0.145,-2.91a73.467,73.467 0 0 0 2.513,-4.022c0.555,-0.955 0.374,-2.175 -0.409,-2.953c-1.421,-1.411 -3.044,-2.624 -4.617,-3.881c-0.871,-0.696 -2.115,-0.721 -2.987,-0.026a71.382,71.382 0 0 0 -3.594,3.073a2.425,2.425 0 0 1 -2.796,0.353l-1.888,-1.025c-0.563,-0.378 -1.19,-0.601 -1.832,-0.79a2.426,2.426 0 0 1 -1.745,-2.386c0.03,-1.569 0.008,-3.155 -0.067,-4.753a2.44,2.44 0 0 0 -1.887,-2.251c-1.989,-0.452 -4.052,-0.528 -6.092,-0.704c-1.089,-0.094 -2.124,0.541 -2.482,1.573a59.663,59.663 0 0 0 -1.363,4.504a2.43,2.43 0 0 1 -2.1,1.821l-2.179,0.22c-0.726,0.042 -1.446,0.118 -2.153,0.26c-1.019,0.204 -2.04,-0.216 -2.586,-1.099a70.796,70.796 0 0 0 -2.595,-3.904c-0.629,-0.882 -1.785,-1.224 -2.808,-0.866c-1.936,0.679 -3.754,1.634 -5.556,2.628a2.42,2.42 0 0 0 -1.198,2.668a62.076,62.076 0 0 0 1.254,4.54c0.305,0.953 0.023,1.998 -0.749,2.635l-1.715,1.414c-0.593,0.502 -1.218,0.971 -1.785,1.498c-0.719,0.668 -1.78,0.774 -2.666,0.352a71.614,71.614 0 0 0 -4.277,-1.871c-1.005,-0.401 -2.16,-0.066 -2.826,0.787c-1.263,1.617 -2.301,3.389 -3.274,5.205c-0.509,0.951 -0.343,2.136 0.435,2.884a67.126,67.126 0 0 0 3.521,3.161a2.432,2.432 0 0 1 0.783,2.59l-0.67,2.152c-0.183,0.762 -0.496,1.499 -0.715,2.255c-0.268,0.925 -1.065,1.577 -2.02,1.699a70.77,70.77 0 0 0 -4.606,0.745c-1.021,0.2 -1.828,1.048 -1.934,2.083a30.983,30.983 0 0 0 0,6.343c0.106,1.034 0.912,1.882 1.932,2.082c1.544,0.303 3.083,0.551 4.612,0.747c0.954,0.122 1.75,0.774 2.018,1.697c0.22,0.756 0.533,1.493 0.716,2.258l0.668,2.151a2.431,2.431 0 0 1 -0.785,2.589a65.787,65.787 0 0 0 -3.52,3.161c-0.778,0.748 -0.944,1.934 -0.434,2.885c0.973,1.815 2.01,3.586 3.273,5.202c0.666,0.853 1.822,1.188 2.826,0.787a71.4,71.4 0 0 0 4.279,-1.872c0.886,-0.423 1.947,-0.318 2.666,0.35c0.567,0.527 1.193,0.996 1.786,1.498l1.718,1.418c0.772,0.637 1.053,1.682 0.748,2.635a61.601,61.601 0 0 0 -1.257,4.54a2.42,2.42 0 0 0 1.198,2.667c1.803,0.995 3.622,1.949 5.56,2.628c1.022,0.358 2.179,0.016 2.807,-0.867a71.757,71.757 0 0 0 2.595,-3.904c0.546,-0.882 1.566,-1.302 2.583,-1.099c0.707,0.141 1.427,0.217 2.156,0.261l2.175,0.219a2.432,2.432 0 0 1 2.1,1.821a59.726,59.726 0 0 0 1.367,4.506c0.359,1.031 1.394,1.666 2.482,1.572c2.039,-0.176 4.101,-0.252 6.09,-0.703a2.441,2.441 0 0 0 1.889,-2.251c0.075,-1.6 0.096,-3.186 0.066,-4.755a2.424,2.424 0 0 1 1.741,-2.385c0.642,-0.19 1.27,-0.413 1.834,-0.789l1.889,-1.024a2.425,2.425 0 0 1 2.795,0.354a71.058,71.058 0 0 0 3.599,3.073c0.872,0.693 2.115,0.667 2.985,-0.028c1.573,-1.257 3.194,-2.471 4.615,-3.884c0.782,-0.778 0.962,-1.998 0.408,-2.952a72.805,72.805 0 0 0 -2.513,-4.02c-0.605,-0.901 -0.56,-2.085 0.144,-2.911c0.444,-0.52 0.865,-1.055 1.169,-1.67l1.024,-1.885a2.41,2.41 0 0 1 2.539,-1.217c1.539,0.262 3.101,0.477 4.68,0.643c1.125,0.118 2.182,-0.585 2.536,-1.66c0.621,-1.89 1.284,-3.78 1.735,-5.707c0.257,-1.095 -0.241,-2.247 -1.244,-2.756a74.594,74.594 0 0 0 -4.324,-2.024a2.413,2.413 0 0 1 -1.468,-2.459l0.186,-1.856c0.018,-0.163 0.018,-0.326 0.001,-0.487zm-24.285,24.755c-4.694,1.774 -9.917,3.196 -15.016,2.087c-5.007,-0.798 -10.017,-2.703 -13.757,-6.29c-3.83,-3.352 -6.971,-7.739 -8.177,-12.736a24.97,24.97 0 0 1 0,-15.136c1.208,-4.998 4.349,-9.382 8.177,-12.736c3.741,-3.585 8.752,-5.493 13.754,-6.29c5.101,-1.112 10.321,0.312 15.018,2.087c4.739,2.07 8.533,5.79 11.492,9.938c2.798,4.29 3.953,9.305 4.325,14.362c0.01,0.137 0.01,0.275 0,0.412c-0.369,5.058 -1.527,10.074 -4.325,14.362c-2.958,4.147 -6.75,7.87 -11.491,9.94z" id="svg_3"/>
   <path d="m-499,609.867a1.28,1.28 0 0 0 -1.28,1.28l0,4.49a1.28,1.28 0 0 0 2.56,0l0,-4.49a1.28,1.28 0 0 0 -1.28,-1.28z" id="svg_4"/>
   <path d="m-485.251,594.416a13.696,13.696 0 0 0 -9.598,-13.108a1.278,1.278 0 0 0 -1.665,1.219l0,12.057l-2.486,1.905l-2.486,-1.905l0,-12.057a1.277,1.277 0 0 0 -1.666,-1.219a13.697,13.697 0 0 0 -9.597,13.108c0,5.511 3.267,10.262 7.959,12.453l0,12.601a1.28,1.28 0 0 0 2.56,0l0,-11.704c1.038,0.251 2.116,0.399 3.231,0.399s2.193,-0.148 3.232,-0.399l0,11.705a1.28,1.28 0 0 0 2.56,0l0,-12.602c4.69,-2.192 7.956,-6.942 7.956,-12.453zm-15.945,10.979c-4.517,-0.864 -8.115,-4.581 -8.845,-9.122c-0.808,-5.024 1.727,-9.706 5.996,-11.85l0,10.791c0,0.398 0.185,0.774 0.502,1.016l3.766,2.886a1.278,1.278 0 0 0 1.556,0l3.766,-2.886a1.28,1.28 0 0 0 0.502,-1.016l0,-10.791a11.143,11.143 0 0 1 6.145,9.992c-0.002,6.889 -6.259,12.344 -13.388,10.98z" id="svg_5"/>
  </g>
  <g id="478ae013-9af1-4c5d-a76c-0aac8470adb7" fill="url(#6b65eb74-70d5-47eb-b38a-6d809e1e6713)" transform="matrix(0.5206942590120159,0,0,0.5206942590120159,52.302136168540414,213.25783538566557)">
   <path d="m0.39,3.64l-0.01,-0.56l7.18,0l0,0q0.01,1.06 0.07,2.2l0,0l-0.55,0.02l0,0q-0.01,-0.64 -0.07,-1.05l0,0l0,0q-0.04,-0.36 -0.09,-0.45l0,0l0,0q-0.06,-0.09 -0.17,-0.11l0,0l0,0q-0.1,-0.01 -0.69,-0.01l0,0l-2.38,0l0,0q-0.54,0 -0.69,0.09l0,0l0,0q-0.12,0.09 -0.12,0.56l0,0l0,1.95l0,0q0,0.41 0.06,0.48l0,0l0,0q0.06,0.08 0.4,0.08l0,0l2.12,0l0,0q0.36,0 0.44,-0.1l0,0l0,0q0.08,-0.1 0.08,-0.57l0,0l0,-0.54l0.52,0l0,3.34l-0.52,0l0,-0.71l0,0q0,-0.58 -0.08,-0.69l0,0l0,0q-0.08,-0.11 -0.41,-0.11l0,0l-2.1,0l0,0q-0.34,0 -0.42,0.08l0,0l0,0q-0.09,0.09 -0.09,0.35l0,0l0,3.31l0,0q0,0.4 0.07,0.53l0,0l0,0q0.08,0.14 0.35,0.14l0,0l0.93,0l0,0.54l-3.59,0l0,-0.54l0.41,0l0,0q0.5,0 0.6,-0.08l0,0l0,0q0.1,-0.09 0.1,-0.46l0,0l0,-7.09l0,0q0,-0.45 -0.17,-0.53l0,0l0,0q-0.14,-0.07 -1.18,-0.07l0,0zm15.67,0l-0.39,0l0,-0.56l3.37,0l0.01,0.56l-0.53,0l0,0q-0.43,0 -0.59,0.09l0,0l0,0q-0.17,0.1 -0.17,0.43l0,0l0,5.17l0,0q0,0.3 0.03,0.45l0,0l0,0q0.04,0.23 0.21,0.63l0,0l0,0q0.17,0.39 0.46,0.68l0,0l0,0q0.31,0.31 0.87,0.54l0,0l0,0q0.58,0.22 1.36,0.22l0,0l0,0q0.85,0 1.4,-0.18l0,0l0,0q0.56,-0.19 0.87,-0.45l0,0l0,0q0.3,-0.26 0.45,-0.73l0,0l0,0q0.17,-0.54 0.17,-0.83l0,0l0,0q0.03,-0.48 0.04,-0.99l0,0l0,-4.53l0,0q0,-0.33 -0.15,-0.42l0,0l0,0q-0.15,-0.08 -0.62,-0.08l0,0l-0.5,0l0.03,-0.56l2.63,0l0,0.56l-0.19,0l0,0q-0.32,0 -0.43,0.11l0,0l0,0q-0.12,0.11 -0.12,0.5l0,0l0,4.97l0,0q0,3.45 -3.58,3.45l0,0l0,0q-2.17,0 -3.12,-0.91l0,0l0,0q-0.94,-0.9 -0.94,-2.35l0,0l0,-5.27l0,0q0,-0.33 -0.1,-0.42l0,0l0,0q-0.11,-0.08 -0.47,-0.08l0,0zm17.18,0l-0.49,0l0.01,-0.56l3.59,0l0,0.56l-0.63,0l0,0q-0.38,0 -0.49,0.08l0,0l0,0q-0.11,0.08 -0.11,0.44l0,0l0,7.06l0,0q0,0.35 0.08,0.45l0,0l0,0q0.09,0.1 0.38,0.1l0,0l0,0q2.87,-0.03 3.53,-0.14l0,0l0,0q0.21,-0.02 0.29,-0.24l0,0l0,0q0.08,-0.22 0.28,-1.34l0,0l0.49,0.03l-0.46,2.33l-6.76,0l-0.01,-0.54l0.39,0l0,0q0.5,0 0.57,-0.07l0,0l0,0q0.08,-0.08 0.09,-0.47l0,0l0,-7.24l0,0q0,-0.29 -0.16,-0.37l0,0l0,0q-0.15,-0.08 -0.59,-0.08l0,0zm15.16,0l-0.49,0l0.01,-0.56l3.59,0l0,0.56l-0.64,0l0,0q-0.37,0 -0.49,0.08l0,0l0,0q-0.11,0.08 -0.11,0.44l0,0l0,7.06l0,0q0,0.35 0.09,0.45l0,0l0,0q0.08,0.1 0.38,0.1l0,0l0,0q2.87,-0.03 3.52,-0.14l0,0l0,0q0.22,-0.02 0.3,-0.24l0,0l0,0q0.08,-0.22 0.28,-1.34l0,0l0.49,0.03l-0.46,2.33l-6.77,0l-0.01,-0.54l0.39,0l0,0q0.51,0 0.57,-0.07l0,0l0,0q0.09,-0.08 0.09,-0.47l0,0l0,-7.24l0,0q0,-0.29 -0.15,-0.37l0,0l0,0q-0.15,-0.08 -0.59,-0.08l0,0zm24.25,8.77l-0.02,-0.54l0.17,0l0,0q0.39,0 0.52,-0.14l0,0l0,0q0.13,-0.16 0.46,-0.9l0,0l0.91,-2.01l0.57,-1.29l0,0q0.27,-0.56 0.31,-0.67l0,0l0,0q0.07,-0.16 0.12,-0.26l0,0l0,0q0.05,-0.09 0.07,-0.15l0,0l0.09,-0.24l1.43,-3.47l0.29,0l0,0q0.86,2.24 3.05,7.51l0,0l0,0q0.45,1.09 0.64,1.39l0,0l0,0q0.14,0.23 0.57,0.23l0,0l0.21,0l-0.01,0.54l-3.19,0l0.01,-0.54l0.42,0l0,0q0.61,0 0.61,-0.17l0,0l0,0q0,-0.07 -0.13,-0.43l0,0l-1.04,-2.55l-3.25,0l-1.11,2.46l0,0q-0.13,0.32 -0.13,0.45l0,0l0,0q0,0.16 0.09,0.2l0,0l0,0q0.1,0.04 0.48,0.04l0,0l0.58,0l0,0.54l-2.72,0zm4.49,-7.62l-1.41,3.31l2.74,0l-1.33,-3.31zm12.68,-1.15l-0.04,-0.56l3.78,0l0,0q1.32,0 2.18,0.11l0,0l0,0q0.82,0.1 1.51,0.5l0,0l0,0q0.96,0.58 1.46,1.55l0,0l0,0q0.49,0.97 0.49,2.15l0,0l0,0q0,0.66 -0.14,1.26l0,0l0,0q-0.16,0.64 -0.55,1.33l0,0l0,0q-0.43,0.75 -0.99,1.23l0,0l0,0q-0.63,0.55 -1.6,0.87l0,0l0,0q-1,0.33 -2.27,0.33l0,0l-3.62,0l-0.01,-0.54l0.37,0l0,0q0.52,0 0.62,-0.08l0,0l0,0q0.11,-0.09 0.11,-0.54l0,0l0,-7.11l0,0q0,-0.37 -0.09,-0.43l0,0l0,0q-0.11,-0.07 -0.62,-0.07l0,0l-0.59,0zm2.44,0.75l0,6.83l0,0q0,0.45 0.16,0.55l0,0l0,0q0.16,0.1 1.03,0.1l0,0l0,0q1.05,0 1.84,-0.26l0,0l0,0q0.86,-0.26 1.29,-0.62l0,0l0,0q0.5,-0.41 0.8,-0.94l0,0l0,0q0.31,-0.53 0.44,-1.09l0,0l0,0q0.12,-0.55 0.12,-1.14l0,0l0,0q0,-0.79 -0.27,-1.48l0,0l0,0q-0.26,-0.69 -0.79,-1.29l0,0l0,0q-0.53,-0.59 -1.44,-0.96l0,0l0,0q-0.93,-0.36 -2.09,-0.36l0,0l-0.52,0l0,0q-0.36,0 -0.46,0.12l0,0l0,0q-0.11,0.14 -0.11,0.54l0,0zm18.08,8.02l-3.02,0l0,-0.54l0.13,0l0,0q0.59,0 0.71,-0.1l0,0l0,0q0.12,-0.09 0.13,-0.56l0,0l0.13,-6.83l0,0q0,-0.03 0.01,-0.1l0,0l0,0q0.01,-0.07 0.01,-0.11l0,0l0,-0.16l0,0q0,-0.25 -0.08,-0.3l0,0l0,0q-0.09,-0.07 -0.32,-0.07l0,0l-0.71,0l-0.01,-0.56l2.11,0l3.19,7.47l3.14,-7.47l2.24,0l0,0.56l-0.48,0l0,0q-0.45,0 -0.57,0.07l0,0l0,0q-0.16,0.08 -0.16,0.37l0,0l0,7.14l0,0q0,0.46 0.11,0.55l0,0l0,0q0.12,0.1 0.75,0.1l0,0l0.28,0l0.01,0.54l-3.4,0l-0.02,-0.54l0.28,0l0,0q0.62,0 0.73,-0.1l0,0l0,0q0.13,-0.11 0.13,-0.52l0,0l0,-6.42l-2.16,5.08l-0.85,2.11l0,0q-0.14,0.35 -0.18,0.42l0,0l0,0q-0.05,0.07 -0.11,0.07l0,0l0,0q-0.1,0 -0.55,-0.99l0,0l-2.81,-6.51l-0.06,6.38l0,0q0,0.35 0.2,0.41l0,0l0,0q0.24,0.07 1.2,0.07l0,0l0,0.54zm15.91,-8.77l-0.58,0l0.01,-0.56l3.51,0l0,0.56l-0.23,0l0,0q-0.55,0 -0.72,0.09l0,0l0,0q-0.13,0.08 -0.13,0.55l0,0l0,6.94l0,0q0,0.46 0.1,0.55l0,0l0,0q0.11,0.1 0.65,0.1l0,0l0.54,0l0.02,0.54l-3.58,0l-0.02,-0.54l0.36,0l0,0q0.57,0 0.68,-0.1l0,0l0,0q0.11,-0.1 0.11,-0.52l0,0l0,-7.11l0,0q0,-0.37 -0.1,-0.43l0,0l0,0q-0.11,-0.07 -0.62,-0.07l0,0zm10.92,0l-0.01,-0.56l2.17,0l5.74,7.4l0,-6.34l0,0q0,-0.33 -0.16,-0.42l0,0l0,0q-0.15,-0.08 -0.61,-0.08l0,0l-0.49,0l0.02,-0.56l2.99,0l0,0.56l-0.33,0l0,0q-0.46,0 -0.61,0.11l0,0l0,0q-0.15,0.11 -0.15,0.5l0,0l0,8.07l0,0.15l0,0q0,0.05 -0.02,0.1l0,0l0,0q-0.01,0.04 -0.04,0.07l0,0l0,0q-0.02,0.01 -0.07,0.01l0,0l-0.19,0l-0.06,0l-0.03,0l-0.03,-0.01l0,0q-0.03,0 -0.04,-0.01l0,0l0,0q-0.01,-0.02 -0.01,-0.03l0,0l0,0q0,-0.02 -0.02,-0.03l0,0l0,0q-0.02,-0.03 -0.05,-0.07l0,0l0,0q-0.02,-0.02 -0.04,-0.05l0,0l0,0q-0.02,-0.04 -0.03,-0.05l0,0l-6.1,-7.84l0.06,6.66l0,0q0,0.45 0.17,0.55l0,0l0,0q0.15,0.1 0.87,0.1l0,0l0.23,0l0,0.54l-2.93,0l0,-0.54l0.42,0l0,0q0.38,0 0.48,-0.11l0,0l0,0q0.1,-0.1 0.11,-0.51l0,0l0,-7.45l-0.15,-0.16l-1.09,0zm17.97,0l-0.59,0l0.02,-0.56l3.51,0l0,0.56l-0.23,0l0,0q-0.55,0 -0.72,0.09l0,0l0,0q-0.14,0.08 -0.14,0.55l0,0l0,6.94l0,0q0,0.46 0.11,0.55l0,0l0,0q0.11,0.1 0.65,0.1l0,0l0.54,0l0.02,0.54l-3.59,0l-0.01,-0.54l0.36,0l0,0q0.56,0 0.68,-0.1l0,0l0,0q0.11,-0.1 0.11,-0.52l0,0l0,-7.11l0,0q0,-0.37 -0.1,-0.43l0,0l0,0q-0.11,-0.07 -0.62,-0.07l0,0zm10.88,6.4l0,0l0.49,-0.06l0.18,0.87l0,0q0.11,0.48 0.18,0.56l0,0l0,0q0.07,0.08 0.48,0.23l0,0l0,0q0.84,0.31 1.74,0.31l0,0l0,0q0.78,0 1.32,-0.46l0,0l0,0q0.54,-0.45 0.54,-1.23l0,0l0,0q0,-0.61 -0.46,-1.05l0,0l0,0q-0.48,-0.45 -1.33,-0.91l0,0l-0.58,-0.32l0,0q-0.74,-0.43 -0.98,-0.62l0,0l0,0q-0.36,-0.28 -0.67,-0.77l0,0l0,0q-0.31,-0.49 -0.31,-1.13l0,0l0,0q0,-1.07 0.84,-1.78l0,0l0,0q0.84,-0.71 1.95,-0.71l0,0l0,0q0.28,0 0.63,0.07l0,0l0,0q0.2,0.04 0.53,0.13l0,0l0.24,0.08l0,0q0.1,0 0.14,-0.09l0,0l0,0q0.05,-0.11 0.05,-0.18l0,0l0.01,-0.1l0.48,-0.03l0.22,2.56l-0.51,0.02l-0.12,-1.25l0,0q-0.75,-0.56 -1.91,-0.56l0,0l0,0q-0.64,0 -1.15,0.43l0,0l0,0q-0.48,0.42 -0.48,1.07l0,0l0,0q0,0.6 0.45,1.05l0,0l0,0q0.43,0.43 1.3,0.91l0,0l0.77,0.42l0,0q0.95,0.53 1.49,1.09l0,0l0,0q0.53,0.56 0.53,1.33l0,0l0,0q0,1.07 -0.85,1.84l0,0l0,0q-0.87,0.78 -2.33,0.78l0,0l0,0q-0.56,0 -1.06,-0.13l0,0l0,0q-0.5,-0.12 -0.56,-0.12l0,0l0,0q-0.25,0 -0.25,0.29l0,0l0.01,0.18l-0.48,0.04l0,0q-0.06,-0.39 -0.54,-2.76zm14.52,-4.69l-0.5,-0.02l0,0q0.13,-1.16 0.21,-2.25l0,0l8.08,0l0,0q-0.08,1.05 -0.11,1.45l0,0l0,0q-0.04,0.73 -0.06,0.79l0,0l-0.5,-0.02l0,0q0.08,-0.96 0.08,-1.14l0,0l0,0q0,-0.28 -0.14,-0.37l0,0l0,0q-0.17,-0.1 -0.58,-0.1l0,0l-1.6,0l0,0q-0.51,0 -0.63,0.1l0,0l0,0q-0.1,0.08 -0.1,0.57l0,0l0,6.86l0,0q0,0.44 0.14,0.54l0,0l0,0q0.16,0.11 0.67,0.11l0,0l0.56,0l0.01,0.54l-3.69,-0.01l0,-0.53l0.22,0l0,0q0.67,0 0.82,-0.08l0,0l0,0q0.14,-0.09 0.14,-0.51l0,0l0,-6.8l0,0q0,-0.56 -0.1,-0.68l0,0l0,0q-0.1,-0.11 -0.52,-0.11l0,0l-1.47,0l0,0q-0.19,0 -0.26,0.02l0,0l0,0q-0.06,0.01 -0.17,0.01l0,0l0,0q-0.03,0 -0.15,0.07l0,0l0,0q-0.08,0.05 -0.11,0.07l0,0l0,0q-0.02,0.02 -0.07,0.13l0,0l0,0q-0.02,0.06 -0.05,0.15l0,0l0,0q-0.03,0.07 -0.05,0.22l0,0l0,0q-0.03,0.23 -0.03,0.25l0,0l0,0q0,0.19 -0.01,0.34l0,0l0,0q0,0.07 -0.01,0.2l0,0l0,0q0,0.14 -0.02,0.2l0,0zm15.86,-1.71l-0.39,0l0.02,-0.56l3.22,0l0,0q1.13,0 1.73,0.13l0,0l0,0q0.65,0.16 1.11,0.54l0,0l0,0q1.01,0.82 1.01,1.96l0,0l0,0q0,0.72 -0.48,1.33l0,0l0,0q-0.49,0.62 -1.52,0.88l0,0l2.69,3.57l0,0q0.3,0.38 0.6,0.38l0,0l0.6,0l0.03,0.54l-2.03,0l-3,-4.31l-0.17,0l0,0q-0.04,0 -0.09,0.01l0,0l0,0q-0.06,0 -0.07,0l0,0l0,0q-0.88,0 -1.28,-0.08l0,0l0,3.43l0,0q0,0.3 0.14,0.35l0,0l0,0q0.13,0.06 0.83,0.06l0,0l0.71,0l-0.03,0.54l-3.72,0l0,-0.54l0.32,0l0,0q0.46,0 0.53,-0.06l0,0l0,0q0.08,-0.07 0.08,-0.35l0,0l0,-7.32l0,0q0,-0.32 -0.19,-0.41l0,0l0,0q-0.22,-0.09 -0.65,-0.09l0,0zm1.98,0.64l0,3.29l0,0q0.18,0.13 0.89,0.14l0,0l0,0q1.28,0 1.86,-0.44l0,0l0,0q0.58,-0.43 0.58,-1.35l0,0l0,0q0,-1 -0.77,-1.65l0,0l0,0q-0.76,-0.63 -2.14,-0.63l0,0l0,0q-0.25,0 -0.33,0.11l0,0l0,0q-0.08,0.09 -0.09,0.53l0,0zm14.4,8.13l-0.01,-0.54l0.17,0l0,0q0.39,0 0.52,-0.14l0,0l0,0q0.12,-0.16 0.46,-0.9l0,0l0.91,-2.01l0.57,-1.29l0,0q0.27,-0.56 0.31,-0.67l0,0l0,0q0.07,-0.16 0.12,-0.26l0,0l0,0q0.05,-0.09 0.06,-0.15l0,0l0.1,-0.24l1.43,-3.47l0.29,0l0,0q0.86,2.24 3.04,7.51l0,0l0,0q0.45,1.09 0.65,1.39l0,0l0,0q0.13,0.23 0.57,0.23l0,0l0.21,0l-0.01,0.54l-3.19,0l0.01,-0.54l0.42,0l0,0q0.61,0 0.61,-0.17l0,0l0,0q0,-0.07 -0.14,-0.43l0,0l-1.03,-2.55l-3.25,0l-1.11,2.46l0,0q-0.14,0.32 -0.14,0.45l0,0l0,0q0,0.16 0.1,0.2l0,0l0,0q0.1,0.04 0.48,0.04l0,0l0.57,0l0,0.54l-2.72,0zm4.5,-7.62l-1.41,3.31l2.74,0l-1.33,-3.31zm12.91,0.56l-0.5,-0.02l0,0q0.13,-1.16 0.21,-2.25l0,0l8.08,0l0,0q-0.08,1.05 -0.11,1.45l0,0l0,0q-0.04,0.73 -0.06,0.79l0,0l-0.5,-0.02l0,0q0.08,-0.96 0.08,-1.14l0,0l0,0q0,-0.28 -0.14,-0.37l0,0l0,0q-0.17,-0.1 -0.58,-0.1l0,0l-1.6,0l0,0q-0.51,0 -0.63,0.1l0,0l0,0q-0.1,0.08 -0.1,0.57l0,0l0,6.86l0,0q0,0.44 0.14,0.54l0,0l0,0q0.16,0.11 0.67,0.11l0,0l0.56,0l0.01,0.54l-3.69,-0.01l0,-0.53l0.22,0l0,0q0.67,0 0.81,-0.08l0,0l0,0q0.15,-0.09 0.15,-0.51l0,0l0,-6.8l0,0q0,-0.56 -0.1,-0.68l0,0l0,0q-0.1,-0.11 -0.52,-0.11l0,0l-1.47,0l0,0q-0.19,0 -0.26,0.02l0,0l0,0q-0.07,0.01 -0.17,0.01l0,0l0,0q-0.03,0 -0.15,0.07l0,0l0,0q-0.08,0.05 -0.11,0.07l0,0l0,0q-0.02,0.02 -0.07,0.13l0,0l0,0q-0.02,0.06 -0.05,0.15l0,0l0,0q-0.03,0.07 -0.05,0.22l0,0l0,0q-0.03,0.23 -0.03,0.25l0,0l0,0q0,0.19 -0.01,0.34l0,0l0,0q0,0.07 -0.01,0.2l0,0l0,0q0,0.14 -0.02,0.2l0,0zm16.12,-1.71l-0.59,0l0.01,-0.56l3.52,0l0,0.56l-0.24,0l0,0q-0.54,0 -0.72,0.09l0,0l0,0q-0.13,0.08 -0.13,0.55l0,0l0,6.94l0,0q0,0.46 0.11,0.55l0,0l0,0q0.11,0.1 0.64,0.1l0,0l0.55,0l0.01,0.54l-3.58,0l-0.01,-0.54l0.36,0l0,0q0.56,0 0.67,-0.1l0,0l0,0q0.11,-0.1 0.11,-0.52l0,0l0,-7.11l0,0q0,-0.37 -0.1,-0.43l0,0l0,0q-0.11,-0.07 -0.61,-0.07l0,0zm11.28,4.19l0,0l0,0q0,-1.21 0.41,-2.15l0,0l0,0q0.41,-0.96 1.1,-1.56l0,0l0,0q0.69,-0.61 1.55,-0.93l0,0l0,0q0.85,-0.31 1.8,-0.31l0,0l0,0q1.25,0 2.31,0.52l0,0l0,0q1.08,0.53 1.79,1.67l0,0l0,0q0.69,1.1 0.7,2.68l0,0l0,0q0,0.95 -0.31,1.79l0,0l0,0q-0.3,0.84 -0.91,1.56l0,0l0,0q-0.6,0.71 -1.54,1.12l0,0l0,0q-0.96,0.41 -2.15,0.42l0,0l0,0q-1.14,0 -2.08,-0.41l0,0l0,0q-0.93,-0.4 -1.49,-1.09l0,0l0,0q-0.58,-0.69 -0.87,-1.54l0,0l0,0q-0.31,-0.88 -0.31,-1.77zm1.26,-0.45l0,0l0,0q0,1.14 0.43,2.22l0,0l0,0q0.4,1.04 1.33,1.73l0,0l0,0q0.91,0.7 2.1,0.71l0,0l0,0q1.38,0 2.31,-1.03l0,0l0,0q0.95,-1.04 0.95,-2.91l0,0l0,0q0,-2.11 -1.16,-3.38l0,0l0,0q-1.15,-1.26 -2.66,-1.27l0,0l0,0q-0.52,0 -1.06,0.2l0,0l0,0q-0.55,0.2 -1.05,0.6l0,0l0,0q-0.55,0.43 -0.87,1.23l0,0l0,0q-0.32,0.79 -0.32,1.9zm16.53,-3.74l-0.01,-0.56l2.17,0l5.73,7.4l0,-6.34l0,0q0,-0.33 -0.15,-0.42l0,0l0,0q-0.15,-0.08 -0.61,-0.08l0,0l-0.49,0l0.02,-0.56l2.98,0l0,0.56l-0.32,0l0,0q-0.46,0 -0.61,0.11l0,0l0,0q-0.15,0.11 -0.15,0.5l0,0l0,8.07l0,0.15l0,0q0,0.05 -0.02,0.1l0,0l0,0q-0.01,0.04 -0.04,0.07l0,0l0,0q-0.02,0.01 -0.07,0.01l0,0l-0.19,0l-0.07,0l-0.02,0l-0.03,-0.01l0,0q-0.03,0 -0.04,-0.01l0,0l0,0q-0.01,-0.02 -0.01,-0.03l0,0l0,0q0,-0.02 -0.02,-0.03l0,0l0,0q-0.03,-0.03 -0.05,-0.07l0,0l0,0q-0.02,-0.02 -0.04,-0.05l0,0l0,0q-0.02,-0.04 -0.03,-0.05l0,0l-6.11,-7.84l0.07,6.66l0,0q0,0.45 0.17,0.55l0,0l0,0q0.15,0.1 0.86,0.1l0,0l0.24,0l0,0.54l-2.94,0l0,-0.54l0.43,0l0,0q0.37,0 0.48,-0.11l0,0l0,0q0.1,-0.1 0.11,-0.51l0,0l0,-7.45l-0.15,-0.16l-1.09,0zm30.68,8.77l-3.73,0l0,-0.54l0.44,0l0,0q0.38,0 0.43,-0.06l0,0l0,0q0.07,-0.07 0.08,-0.35l0,0l0,-7.32l0,0q0,-0.33 -0.09,-0.42l0,0l0,0q-0.08,-0.08 -0.45,-0.08l0,0l-0.37,0l0.02,-0.56l2.88,0l0,0q1.15,0 1.8,0.11l0,0l0,0q0.6,0.09 1.07,0.49l0,0l0,0q1.19,0.96 1.19,2.51l0,0l0,0q0,1.04 -0.76,1.79l0,0l0,0q-0.78,0.76 -2.19,0.75l0,0l0,0q-0.17,0 -0.59,-0.03l0,0l0,0q-0.11,-0.01 -0.53,-0.08l0,0l0,0q-0.34,-0.07 -0.43,-0.08l0,0l0,0q-0.3,-0.07 -0.31,-0.08l0,0l-0.12,-0.02l0,3.02l0,0q0,0.28 0.13,0.35l0,0l0,0q0.11,0.06 0.83,0.06l0,0l0.7,0l0,0.54zm-1.66,-8.13l0,3.74l0,0q0.35,0.27 1.32,0.27l0,0l0,0q1.14,0 1.71,-0.54l0,0l0,0q0.59,-0.54 0.59,-1.59l0,0l0,0q0,-1.18 -0.91,-1.85l0,0l0,0q-0.89,-0.67 -2.28,-0.67l0,0l0,0q-0.25,0 -0.34,0.11l0,0l0,0q-0.08,0.09 -0.09,0.53l0,0zm12.92,8.13l-0.01,-0.54l0.17,0l0,0q0.39,0 0.52,-0.14l0,0l0,0q0.12,-0.16 0.46,-0.9l0,0l0.91,-2.01l0.57,-1.29l0,0q0.27,-0.56 0.31,-0.67l0,0l0,0q0.07,-0.16 0.12,-0.26l0,0l0,0q0.05,-0.09 0.06,-0.15l0,0l0.1,-0.24l1.43,-3.47l0.29,0l0,0q0.86,2.24 3.04,7.51l0,0l0,0q0.46,1.09 0.65,1.39l0,0l0,0q0.13,0.23 0.57,0.23l0,0l0.21,0l-0.01,0.54l-3.19,0l0.01,-0.54l0.42,0l0,0q0.61,0 0.61,-0.17l0,0l0,0q0,-0.07 -0.13,-0.43l0,0l-1.04,-2.55l-3.25,0l-1.11,2.46l0,0q-0.13,0.32 -0.13,0.45l0,0l0,0q0,0.16 0.09,0.2l0,0l0,0q0.1,0.04 0.48,0.04l0,0l0.57,0l0,0.54l-2.72,0zm4.5,-7.62l-1.41,3.31l2.74,0l-1.33,-3.31zm12.65,-1.15l-0.01,-0.56l2.17,0l5.73,7.4l0,-6.34l0,0q0,-0.33 -0.15,-0.42l0,0l0,0q-0.15,-0.08 -0.61,-0.08l0,0l-0.49,0l0.02,-0.56l2.98,0l0,0.56l-0.32,0l0,0q-0.46,0 -0.61,0.11l0,0l0,0q-0.15,0.11 -0.15,0.5l0,0l0,8.07l0,0.15l0,0q0,0.05 -0.02,0.1l0,0l0,0q-0.01,0.04 -0.04,0.07l0,0l0,0q-0.02,0.01 -0.07,0.01l0,0l-0.19,0l-0.07,0l-0.02,0l-0.03,-0.01l0,0q-0.03,0 -0.04,-0.01l0,0l0,0q-0.01,-0.02 -0.01,-0.03l0,0l0,0q0,-0.02 -0.02,-0.03l0,0l0,0q-0.03,-0.03 -0.05,-0.07l0,0l0,0q-0.02,-0.02 -0.04,-0.05l0,0l0,0q-0.02,-0.04 -0.03,-0.05l0,0l-6.11,-7.84l0.07,6.66l0,0q0,0.45 0.17,0.55l0,0l0,0q0.15,0.1 0.86,0.1l0,0l0.24,0l0,0.54l-2.94,0l0,-0.54l0.43,0l0,0q0.37,0 0.48,-0.11l0,0l0,0q0.1,-0.1 0.11,-0.51l0,0l0,-7.45l-0.15,-0.16l-1.09,0zm17.4,0l-0.02,-0.56l7.21,0l0,0q0.02,1.06 0.07,2.2l0,0l-0.54,0.02l0,0q-0.02,-0.64 -0.07,-1.05l0,0l0,0q-0.04,-0.36 -0.1,-0.45l0,0l0,0q-0.05,-0.09 -0.17,-0.11l0,0l0,0q-0.09,-0.01 -0.68,-0.01l0,0l-2.38,0l0,0q-0.55,0 -0.69,0.09l0,0l0,0q-0.12,0.09 -0.12,0.56l0,0l0,1.95l0,0q0,0.41 0.05,0.48l0,0l0,0q0.07,0.08 0.41,0.08l0,0l2.11,0l0,0q0.36,0 0.45,-0.11l0,0l0,0q0.08,-0.1 0.09,-0.59l0,0l0,-0.53l0.51,0.02l0,3.34l-0.51,0l0,-0.73l0,0q0,-0.58 -0.08,-0.67l0,0l0,0q-0.08,-0.11 -0.43,-0.11l0,0l-2.1,0l0,0q-0.33,0 -0.42,0.08l0,0l0,0q-0.08,0.09 -0.08,0.35l0,0l0,3.31l0,0q0,0.37 0.08,0.47l0,0l0,0q0.09,0.1 0.36,0.1l0,0l0,0q2.92,-0.02 3.44,-0.08l0,0l0,0q0.52,-0.06 0.61,-0.31l0,0l0,-0.02l0.01,-0.01l0.23,-1.18l0.47,0.08l-0.34,2.16l-7.11,0l0,-0.54l0.37,0l0,0q0.56,0 0.64,-0.07l0,0l0,0q0.1,-0.08 0.1,-0.47l0,0l0,-7.09l0,0q0,-0.42 -0.15,-0.51l0,0l0,0q-0.17,-0.09 -0.83,-0.09l0,0l-0.39,0zm16.08,0l-0.49,0l0.01,-0.56l3.59,0l0,0.56l-0.63,0l0,0q-0.38,0 -0.49,0.08l0,0l0,0q-0.12,0.08 -0.12,0.44l0,0l0,7.06l0,0q0,0.35 0.09,0.45l0,0l0,0q0.09,0.1 0.38,0.1l0,0l0,0q2.87,-0.03 3.53,-0.14l0,0l0,0q0.21,-0.02 0.29,-0.24l0,0l0,0q0.08,-0.22 0.28,-1.34l0,0l0.49,0.03l-0.46,2.33l-6.76,0l-0.02,-0.54l0.39,0l0,0q0.51,0 0.58,-0.07l0,0l0,0q0.08,-0.08 0.09,-0.47l0,0l0,-7.24l0,0q0,-0.29 -0.16,-0.37l0,0l0,0q-0.15,-0.08 -0.59,-0.08l0,0z" id="svg_6"/>
  </g>
 </g>
</svg>