<svg width="44" height="45" xmlns="http://www.w3.org/2000/svg" class="iconAboveSlogan">
    <!---->
    <defs>
        <!---->
        <linearGradient gradientTransform="rotate(25)" id="f25f7e9d-63c3-422a-99dd-466690a74b18" x1="0%" y1="0%"
                        x2="100%" y2="0%">
            <stop offset="0%" stop-color="#EA1F59"/>
            <stop offset="100%" stop-color="#FA9169"/>
        </linearGradient>
    </defs>
    <defs>
        <!---->
    </defs>
    <defs>
        <!---->
    </defs>
    <g>
        <title>Layer 1</title>
        <g id="a42135ff-217d-44a3-8481-5699dfc41672" fill="url(#f25f7e9d-63c3-422a-99dd-466690a74b18)"
           transform="matrix(0.504038 0 0 0.504038 401.515 -183.722)">
            <path
                d="m-716.74159,408.70198l-0.186,-1.845a2.412,2.412 0 0 1 1.467,-2.46a74.861,74.861 0 0 0 4.323,-2.023c0.994,-0.504 1.506,-1.643 1.253,-2.728c-0.45,-1.936 -1.116,-3.834 -1.741,-5.734c-0.354,-1.076 -1.412,-1.781 -2.539,-1.662a75.483,75.483 0 0 0 -4.68,0.644a2.412,2.412 0 0 1 -2.538,-1.218l-1.025,-1.888c-0.304,-0.614 -0.726,-1.148 -1.169,-1.667c-0.704,-0.826 -0.749,-2.009 -0.145,-2.91a73.467,73.467 0 0 0 2.513,-4.022c0.555,-0.955 0.374,-2.175 -0.409,-2.953c-1.421,-1.411 -3.044,-2.624 -4.617,-3.881c-0.871,-0.696 -2.115,-0.721 -2.987,-0.026a71.382,71.382 0 0 0 -3.594,3.073a2.425,2.425 0 0 1 -2.796,0.353l-1.888,-1.025c-0.563,-0.378 -1.19,-0.601 -1.832,-0.79a2.426,2.426 0 0 1 -1.745,-2.386c0.03,-1.569 0.008,-3.155 -0.067,-4.753a2.44,2.44 0 0 0 -1.887,-2.251c-1.989,-0.452 -4.052,-0.528 -6.092,-0.704c-1.089,-0.094 -2.124,0.541 -2.482,1.573a59.663,59.663 0 0 0 -1.363,4.504a2.43,2.43 0 0 1 -2.1,1.821l-2.179,0.22c-0.726,0.042 -1.446,0.118 -2.153,0.26c-1.019,0.204 -2.04,-0.216 -2.586,-1.099a70.796,70.796 0 0 0 -2.595,-3.904c-0.629,-0.882 -1.785,-1.224 -2.808,-0.866c-1.936,0.679 -3.754,1.634 -5.556,2.628a2.42,2.42 0 0 0 -1.198,2.668a62.076,62.076 0 0 0 1.254,4.54c0.305,0.953 0.023,1.998 -0.749,2.635l-1.715,1.414c-0.593,0.502 -1.218,0.971 -1.785,1.498c-0.719,0.668 -1.78,0.774 -2.666,0.352a71.614,71.614 0 0 0 -4.277,-1.871c-1.005,-0.401 -2.16,-0.066 -2.826,0.787c-1.263,1.617 -2.301,3.389 -3.274,5.205c-0.509,0.951 -0.343,2.136 0.435,2.884a67.126,67.126 0 0 0 3.521,3.161a2.432,2.432 0 0 1 0.783,2.59l-0.67,2.152c-0.183,0.762 -0.496,1.499 -0.715,2.255c-0.268,0.925 -1.065,1.577 -2.02,1.699a70.77,70.77 0 0 0 -4.606,0.745c-1.021,0.2 -1.828,1.048 -1.934,2.083a30.983,30.983 0 0 0 0,6.343c0.106,1.034 0.912,1.882 1.932,2.082c1.544,0.303 3.083,0.551 4.612,0.747c0.954,0.122 1.75,0.774 2.018,1.697c0.22,0.756 0.533,1.493 0.716,2.258l0.668,2.151a2.431,2.431 0 0 1 -0.785,2.589a65.787,65.787 0 0 0 -3.52,3.161c-0.778,0.748 -0.944,1.934 -0.434,2.885c0.973,1.815 2.01,3.586 3.273,5.202c0.666,0.853 1.822,1.188 2.826,0.787a71.4,71.4 0 0 0 4.279,-1.872c0.886,-0.423 1.947,-0.318 2.666,0.35c0.567,0.527 1.193,0.996 1.786,1.498l1.718,1.418c0.772,0.637 1.053,1.682 0.748,2.635a61.601,61.601 0 0 0 -1.257,4.54a2.42,2.42 0 0 0 1.198,2.667c1.803,0.995 3.622,1.949 5.56,2.628c1.022,0.358 2.179,0.016 2.807,-0.867a71.757,71.757 0 0 0 2.595,-3.904c0.546,-0.882 1.566,-1.302 2.583,-1.099c0.707,0.141 1.427,0.217 2.156,0.261l2.175,0.219a2.432,2.432 0 0 1 2.1,1.821a59.726,59.726 0 0 0 1.367,4.506c0.359,1.031 1.394,1.666 2.482,1.572c2.039,-0.176 4.101,-0.252 6.09,-0.703a2.441,2.441 0 0 0 1.889,-2.251c0.075,-1.6 0.096,-3.186 0.066,-4.755a2.424,2.424 0 0 1 1.741,-2.385c0.642,-0.19 1.27,-0.413 1.834,-0.789l1.889,-1.024a2.425,2.425 0 0 1 2.795,0.354a71.058,71.058 0 0 0 3.599,3.073c0.872,0.693 2.115,0.667 2.985,-0.028c1.573,-1.257 3.194,-2.471 4.615,-3.884c0.782,-0.778 0.962,-1.998 0.408,-2.952a72.805,72.805 0 0 0 -2.513,-4.02c-0.605,-0.901 -0.56,-2.085 0.144,-2.911c0.444,-0.52 0.865,-1.055 1.169,-1.67l1.024,-1.885a2.41,2.41 0 0 1 2.539,-1.217c1.539,0.262 3.101,0.477 4.68,0.643c1.125,0.118 2.182,-0.585 2.536,-1.66c0.621,-1.89 1.284,-3.78 1.735,-5.707c0.257,-1.095 -0.241,-2.247 -1.244,-2.756a74.594,74.594 0 0 0 -4.324,-2.024a2.413,2.413 0 0 1 -1.468,-2.459l0.186,-1.856c0.018,-0.163 0.018,-0.326 0.001,-0.487zm-24.285,24.755c-4.694,1.774 -9.917,3.196 -15.016,2.087c-5.007,-0.798 -10.017,-2.703 -13.757,-6.29c-3.83,-3.352 -6.971,-7.739 -8.177,-12.736a24.97,24.97 0 0 1 0,-15.136c1.208,-4.998 4.349,-9.382 8.177,-12.736c3.741,-3.585 8.752,-5.493 13.754,-6.29c5.101,-1.112 10.321,0.312 15.018,2.087c4.739,2.07 8.533,5.79 11.492,9.938c2.798,4.29 3.953,9.305 4.325,14.362c0.01,0.137 0.01,0.275 0,0.412c-0.369,5.058 -1.527,10.074 -4.325,14.362c-2.958,4.147 -6.75,7.87 -11.491,9.94z"
                id="svg_3"/>
            <path
                d="m-752.68459,417.81798a1.28,1.28 0 0 0 -1.28,1.28l0,4.49a1.28,1.28 0 0 0 2.56,0l0,-4.49a1.28,1.28 0 0 0 -1.28,-1.28z"
                id="svg_4"/>
            <path
                d="m-738.93559,402.36698a13.696,13.696 0 0 0 -9.598,-13.108a1.278,1.278 0 0 0 -1.665,1.219l0,12.057l-2.486,1.905l-2.486,-1.905l0,-12.057a1.277,1.277 0 0 0 -1.666,-1.219a13.697,13.697 0 0 0 -9.597,13.108c0,5.511 3.267,10.262 7.959,12.453l0,12.601a1.28,1.28 0 0 0 2.56,0l0,-11.704c1.038,0.251 2.116,0.399 3.231,0.399s2.193,-0.148 3.232,-0.399l0,11.705a1.28,1.28 0 0 0 2.56,0l0,-12.602c4.69,-2.192 7.956,-6.942 7.956,-12.453zm-15.945,10.979c-4.517,-0.864 -8.115,-4.581 -8.845,-9.122c-0.808,-5.024 1.727,-9.706 5.996,-11.85l0,10.791c0,0.398 0.185,0.774 0.502,1.016l3.766,2.886a1.278,1.278 0 0 0 1.556,0l3.766,-2.886a1.28,1.28 0 0 0 0.502,-1.016l0,-10.791a11.143,11.143 0 0 1 6.145,9.992c-0.002,6.889 -6.259,12.344 -13.388,10.98z"
                id="svg_5"/>
        </g>
    </g>
</svg>
